<svg width="164" height="180" viewBox="0 0 164 180" fill="none" xmlns="http://www.w3.org/2000/svg">
<rect width="164" height="180" fill="#E5E5E5"/>
<g id="404">
<rect width="1200" height="1534" transform="translate(-373 -316)" fill="#1E1E24"/>
<g id="Group 159">
<path id="4" d="M131.511 0.875977H88.0231L0 107.499L14.1466 125.75V147.319H88.0231V179.018H131.511V147.319H163.209V107.499H131.511V0.875977ZM88.0231 53.2707V107.499H43.4876L88.0231 53.2707Z" fill="#03FFA4"/>
<g id="Group 219">
<path id="0" d="M315.329 89.9471C315.329 142.08 282.32 182.162 230.449 182.162C177.793 182.162 145.308 142.08 145.308 89.9471C145.308 37.2904 177.793 -2.26758 230.449 -2.26758C282.058 -2.26758 315.329 37.2904 315.329 89.9471ZM271.841 89.9471C221.804 75.102 250.097 37.2904 230.449 37.2904C210.801 37.2904 188.796 54.8426 188.796 89.9471C235.776 92.5669 210.801 142.604 230.449 142.604C250.097 142.604 271.841 125.313 271.841 89.9471Z" fill="#03FFA4"/>
<path id="0 (Stroke)" fill-rule="evenodd" clip-rule="evenodd" d="M298.86 161.414C282.41 179.875 258.787 190.894 230.45 190.894C201.751 190.894 178.047 179.898 161.607 161.407C145.261 143.022 136.576 117.794 136.576 89.9471C136.576 61.8544 145.252 36.613 161.618 18.2784C178.078 -0.16095 201.787 -11 230.45 -11C258.63 -11 282.25 -0.132102 298.744 18.264C315.158 36.57 324.061 61.8013 324.061 89.9471C324.061 117.83 315.225 143.049 298.86 161.414ZM263.109 89.9471C263.109 58.7701 244.426 46.0229 230.45 46.0229C216.409 46.0229 197.528 58.8412 197.528 89.9471C197.528 121.283 216.38 133.871 230.45 133.871C244.455 133.871 263.109 121.354 263.109 89.9471ZM230.45 182.162C282.32 182.162 315.329 142.08 315.329 89.9471C315.329 37.2904 282.058 -2.26755 230.45 -2.26755C177.793 -2.26755 145.308 37.2904 145.308 89.9471C145.308 142.08 177.793 182.162 230.45 182.162ZM230.45 37.2904C250.098 37.2904 271.841 54.8427 271.841 89.9471C271.841 125.314 250.098 142.604 230.45 142.604C210.801 142.604 188.796 125.314 188.796 89.9471C188.796 54.8427 210.801 37.2904 230.45 37.2904Z" fill="#1E1E24"/>
</g>
</g>
</g>
</svg>
