<svg width="164" height="180" viewBox="0 0 164 180" fill="none" xmlns="http://www.w3.org/2000/svg">
<rect width="164" height="180" fill="#E5E5E5"/>
<rect width="1200" height="1534" transform="translate(-663 -316)" fill="#1E1E24"/>
<path d="M132.301 0.875977H88.8136L0.790527 107.499L14.9371 125.75V147.319H88.8136V179.018H132.301V147.319H164V107.499H132.301V0.875977ZM88.8136 53.2707V107.499H44.2781L88.8136 53.2707Z" fill="#03FFA4"/>
<path d="M25.3289 89.9471C25.3289 142.08 -7.67977 182.162 -59.5505 182.162C-112.207 182.162 -144.692 142.08 -144.692 89.9471C-144.692 37.2904 -112.207 -2.26758 -59.5505 -2.26758C-7.94175 -2.26758 25.3289 37.2904 25.3289 89.9471ZM-18.1587 89.9471C-68.196 75.102 -39.9025 37.2904 -59.5505 37.2904C-79.1985 37.2904 -101.204 54.8426 -101.204 89.9471C-54.2241 92.5669 -79.1985 142.604 -59.5505 142.604C-39.9025 142.604 -18.1587 125.313 -18.1587 89.9471Z" fill="#03FFA4"/>
<path fill-rule="evenodd" clip-rule="evenodd" d="M8.86032 161.414C-7.59043 179.875 -31.2128 190.894 -59.5505 190.894C-88.2491 190.894 -111.953 179.898 -128.393 161.407C-144.739 143.022 -153.424 117.794 -153.424 89.9471C-153.424 61.8544 -144.748 36.613 -128.382 18.2784C-111.922 -0.16095 -88.2131 -11 -59.5505 -11C-31.3704 -11 -7.7501 -0.132102 8.74419 18.264C25.1578 36.57 34.0614 61.8013 34.0614 89.9471C34.0614 117.83 25.2246 143.049 8.86032 161.414ZM-26.8911 89.9471C-26.8911 58.7701 -45.5744 46.0229 -59.5505 46.0229C-73.5908 46.0229 -92.4718 58.8412 -92.4718 89.9471C-92.4718 121.283 -73.6199 133.871 -59.5505 133.871C-45.5454 133.871 -26.8911 121.354 -26.8911 89.9471ZM-59.5505 182.162C-7.67974 182.162 25.3289 142.08 25.3289 89.9471C25.3289 37.2904 -7.94173 -2.26755 -59.5505 -2.26755C-112.207 -2.26755 -144.692 37.2904 -144.692 89.9471C-144.692 142.08 -112.207 182.162 -59.5505 182.162ZM-59.5505 37.2904C-39.9025 37.2904 -18.1587 54.8427 -18.1587 89.9471C-18.1587 125.314 -39.9025 142.604 -59.5505 142.604C-79.1985 142.604 -101.204 125.314 -101.204 89.9471C-101.204 54.8427 -79.1985 37.2904 -59.5505 37.2904Z" fill="#1E1E24"/>
</svg>
