<svg width="189" height="202" viewBox="0 0 189 202" fill="none" xmlns="http://www.w3.org/2000/svg">
<g id="Group 219">
<path id="0" d="M179.329 100.947C179.329 153.08 146.32 193.162 94.4495 193.162C41.7928 193.162 9.30811 153.08 9.30811 100.947C9.30811 48.2904 41.7928 8.73242 94.4495 8.73242C146.058 8.73242 179.329 48.2904 179.329 100.947ZM135.841 100.947C85.804 86.102 114.097 48.2904 94.4495 48.2904C74.8015 48.2904 52.7957 65.8426 52.7957 100.947C99.7759 103.567 74.8015 153.604 94.4495 153.604C114.097 153.604 135.841 136.313 135.841 100.947Z" fill="#03FFA4"/>
<path id="0 (Stroke)" fill-rule="evenodd" clip-rule="evenodd" d="M162.86 172.414C146.41 190.875 122.787 201.894 94.4495 201.894C65.7509 201.894 42.0474 190.898 25.6066 172.407C9.26076 154.022 0.575684 128.794 0.575684 100.947C0.575684 72.8544 9.25168 47.613 25.618 29.2784C42.0777 10.8391 65.7869 0 94.4495 0C122.63 0 146.25 10.8679 162.744 29.264C179.158 47.57 188.061 72.8013 188.061 100.947C188.061 128.83 179.225 154.049 162.86 172.414ZM127.109 100.947C127.109 69.7701 108.426 57.0229 94.4495 57.0229C80.4092 57.0229 61.5282 69.8412 61.5282 100.947C61.5282 132.283 80.3801 144.871 94.4495 144.871C108.455 144.871 127.109 132.354 127.109 100.947ZM94.4495 193.162C146.32 193.162 179.329 153.08 179.329 100.947C179.329 48.2904 146.058 8.73245 94.4495 8.73245C41.7928 8.73245 9.30813 48.2904 9.30813 100.947C9.30813 153.08 41.7928 193.162 94.4495 193.162ZM94.4495 48.2904C114.098 48.2904 135.841 65.8427 135.841 100.947C135.841 136.314 114.098 153.604 94.4495 153.604C74.8015 153.604 52.7957 136.314 52.7957 100.947C52.7957 65.8427 74.8015 48.2904 94.4495 48.2904Z" fill="#1E1E24"/>
</g>
</svg>
