<svg width="18" height="18" viewBox="0 0 18 18" fill="none" xmlns="http://www.w3.org/2000/svg">
<mask id="path-1-inside-1_1032_987" fill="white">
<path d="M13.3799 5.82768C13.6446 5.63593 14.0175 5.69385 14.1823 5.9762C14.7315 6.91744 15.0159 7.99412 14.9992 9.09119C14.9795 10.3862 14.5413 11.6402 13.75 12.6656C12.9588 13.691 11.8569 14.4328 10.6091 14.7802C9.36139 15.1275 8.03472 15.0618 6.8274 14.5928C5.62007 14.1239 4.59692 13.2768 3.91084 12.1782C3.22476 11.0796 2.91259 9.78856 3.02097 8.49789C3.12936 7.20722 3.65249 5.98628 4.51218 5.01751C5.24043 4.19686 6.17708 3.5945 7.21764 3.2708C7.52978 3.1737 7.844 3.38269 7.90989 3.70287C7.97578 4.02306 7.7679 4.33255 7.45821 4.43719C6.66739 4.7044 5.95614 5.17384 5.3976 5.80325C4.70752 6.58088 4.28761 7.56093 4.20061 8.59695C4.11361 9.63298 4.36419 10.6693 4.91491 11.5512C5.46562 12.433 6.28691 13.1129 7.25603 13.4894C8.22515 13.8658 9.29007 13.9186 10.2916 13.6397C11.2932 13.3609 12.1777 12.7654 12.8128 11.9424C13.448 11.1193 13.7998 10.1127 13.8156 9.07319C13.8284 8.23179 13.6205 7.40532 13.2174 6.67435C13.0596 6.3881 13.1151 6.01943 13.3799 5.82768Z"/>
</mask>
<path d="M13.3799 5.82768C13.6446 5.63593 14.0175 5.69385 14.1823 5.9762C14.7315 6.91744 15.0159 7.99412 14.9992 9.09119C14.9795 10.3862 14.5413 11.6402 13.75 12.6656C12.9588 13.691 11.8569 14.4328 10.6091 14.7802C9.36139 15.1275 8.03472 15.0618 6.8274 14.5928C5.62007 14.1239 4.59692 13.2768 3.91084 12.1782C3.22476 11.0796 2.91259 9.78856 3.02097 8.49789C3.12936 7.20722 3.65249 5.98628 4.51218 5.01751C5.24043 4.19686 6.17708 3.5945 7.21764 3.2708C7.52978 3.1737 7.844 3.38269 7.90989 3.70287C7.97578 4.02306 7.7679 4.33255 7.45821 4.43719C6.66739 4.7044 5.95614 5.17384 5.3976 5.80325C4.70752 6.58088 4.28761 7.56093 4.20061 8.59695C4.11361 9.63298 4.36419 10.6693 4.91491 11.5512C5.46562 12.433 6.28691 13.1129 7.25603 13.4894C8.22515 13.8658 9.29007 13.9186 10.2916 13.6397C11.2932 13.3609 12.1777 12.7654 12.8128 11.9424C13.448 11.1193 13.7998 10.1127 13.8156 9.07319C13.8284 8.23179 13.6205 7.40532 13.2174 6.67435C13.0596 6.3881 13.1151 6.01943 13.3799 5.82768Z" stroke="#03FFA4" stroke-width="2.66" mask="url(#path-1-inside-1_1032_987)"/>
<path d="M11.4746 3.45779L15.257 5.0052L12.158 7.48695L11.4746 3.45779Z" fill="#03FFA4"/>
</svg>
